CrispyWide Black-MaxGrade-shadow.ufo
<glyph name="period" format="2">
  <advance width="1217"/>
  <unicode hex="002E"/>
  <outline>
    <contour>
      <point x="228" y="428" type="line"/>
      <point x="228" y="428" type="line"/>
      <point x="77" y="278" type="line"/>
      <point x="77" y="-152" type="line"/>
      <point x="958" y="-152" type="line"/>
      <point x="1081" y="-37" type="line"/>
      <point x="1081" y="-37" type="line"/>
      <point x="1081" y="-37" type="line"/>
      <point x="1232" y="113" type="line"/>
      <point x="1232" y="543" type="line"/>
      <point x="351" y="543" type="line"/>
    </contour>
    <contour>
      <point x="81" y="-148" type="line"/>
      <point x="81" y="276" type="line"/>
      <point x="230" y="426" type="line"/>
      <point x="353" y="539" type="line"/>
      <point x="1228" y="539" type="line"/>
      <point x="1228" y="115" type="line"/>
      <point x="1079" y="-35" type="line"/>
      <point x="956" y="-148" type="line"/>
    </contour>
  </outline>
</glyph>
<glyph name="one" format="2">
  <advance width="4463"/>
  <unicode hex="0031"/>
  <outline>
    <contour>
      <point x="4446" y="-1" type="line"/>
      <point x="4446" y="538" type="line"/>
      <point x="2837" y="538" type="line"/>
      <point x="2837" y="1602" type="line"/>
      <point x="270" y="1602" type="line"/>
      <point x="119" y="1451" type="line"/>
      <point x="119" y="912" type="line"/>
      <point x="1738" y="912" type="line"/>
      <point x="1738" y="538" type="line"/>
      <point x="191" y="538" type="line"/>
      <point x="40" y="387" type="line"/>
      <point x="40" y="-152" type="line"/>
      <point x="4295" y="-152" type="line"/>
    </contour>
    <contour>
      <point x="1742" y="534" type="line"/>
      <point x="1742" y="916" type="line"/>
      <point x="123" y="916" type="line"/>
      <point x="123" y="1449" type="line"/>
      <point x="272" y="1598" type="line"/>
      <point x="2833" y="1598" type="line"/>
      <point x="2833" y="534" type="line"/>
      <point x="4442" y="534" type="line"/>
      <point x="4442" y="1" type="line"/>
      <point x="4293" y="-148" type="line"/>
      <point x="44" y="-148" type="line"/>
      <point x="44" y="385" type="line"/>
      <point x="193" y="534" type="line"/>
    </contour>
  </outline>
</glyph>
<glyph name="two" format="2">
  <advance width="4912"/>
  <unicode hex="0032"/>
  <outline>
    <contour>
      <point x="4893" y="1602" type="line"/>
      <point x="192" y="1602" type="line"/>
      <point x="41" y="1451" type="line"/>
      <point x="41" y="852" type="line"/>
      <point x="45" y="852" type="line"/>
      <point x="38" y="845" type="line"/>
      <point x="38" y="-152" type="line"/>
      <point x="4742" y="-152" type="line"/>
      <point x="4893" y="-1" type="line"/>
      <point x="4893" y="571" type="line"/>
      <point x="4869" y="571" type="line"/>
      <point x="4893" y="595" type="line"/>
    </contour>
    <contour>
      <point x="55" y="856" type="line"/>
      <point x="45" y="856" type="line"/>
      <point x="45" y="1449" type="line"/>
      <point x="194" y="1598" type="line"/>
      <point x="4889" y="1598" type="line"/>
      <point x="4889" y="597" type="line"/>
      <point x="4859" y="567" type="line"/>
      <point x="4889" y="567" type="line"/>
      <point x="4889" y="1" type="line"/>
      <point x="4740" y="-148" type="line"/>
      <point x="42" y="-148" type="line"/>
      <point x="42" y="843" type="line"/>
    </contour>
  </outline>
</glyph>
<glyph name="three" format="2">
  <advance width="5147"/>
  <unicode hex="0033"/>
  <outline>
    <contour>
      <point x="1138" y="716" type="line"/>
      <point x="189" y="716" type="line"/>
      <point x="38" y="565" type="line"/>
      <point x="38" y="-152" type="line"/>
      <point x="5010" y="-152" type="line"/>
      <point x="5161" y="-1" type="line"/>
      <point x="5161" y="1020" type="line"/>
      <point x="4938" y="1020" type="line"/>
      <point x="4938" y="1602" type="line"/>
      <point x="145" y="1602" type="line"/>
      <point x="-6" y="1451" type="line"/>
      <point x="-6" y="740" type="line"/>
      <point x="943" y="740" type="line"/>
      <point x="1094" y="891" type="line"/>
      <point x="1094" y="952" type="line"/>
      <point x="1611" y="952" type="line"/>
      <point x="1529" y="870" type="line"/>
      <point x="1529" y="498" type="line"/>
      <point x="1138" y="498" type="line"/>
    </contour>
    <contour>
      <point x="1621" y="956" type="line"/>
      <point x="1090" y="956" type="line"/>
      <point x="1090" y="893" type="line"/>
      <point x="941" y="744" type="line"/>
      <point x="-2" y="744" type="line"/>
      <point x="-2" y="1449" type="line"/>
      <point x="147" y="1598" type="line"/>
      <point x="4934" y="1598" type="line"/>
      <point x="4934" y="1016" type="line"/>
      <point x="5157" y="1016" type="line"/>
      <point x="5157" y="1" type="line"/>
      <point x="5008" y="-148" type="line"/>
      <point x="42" y="-148" type="line"/>
      <point x="42" y="563" type="line"/>
      <point x="191" y="712" type="line"/>
      <point x="1134" y="712" type="line"/>
      <point x="1134" y="494" type="line"/>
      <point x="1533" y="494" type="line"/>
      <point x="1533" y="868" type="line"/>
    </contour>
  </outline>
</glyph>
<glyph name="four" format="2">
  <advance width="4966"/>
  <unicode hex="0034"/>
  <outline>
    <contour>
      <point x="4949" y="1015" type="line"/>
      <point x="4685" y="1015" type="line"/>
      <point x="4685" y="1602" type="line"/>
      <point x="3737" y="1602" type="line"/>
      <point x="3586" y="1451" type="line"/>
      <point x="3586" y="1015" type="line"/>
      <point x="1135" y="1015" type="line"/>
      <point x="1135" y="1074" type="line"/>
      <point x="1137" y="1442" type="line"/>
      <point x="1137" y="1532" type="line"/>
      <point x="1137" y="1534" type="line"/>
      <point x="189" y="1534" type="line"/>
      <point x="38" y="1383" type="line"/>
      <point x="38" y="325" type="line"/>
      <point x="3586" y="325" type="line"/>
      <point x="3586" y="-152" type="line"/>
      <point x="4534" y="-152" type="line"/>
      <point x="4685" y="-1" type="line"/>
      <point x="4685" y="325" type="line"/>
      <point x="4798" y="325" type="line"/>
      <point x="4949" y="476" type="line"/>
    </contour>
    <contour>
      <point x="1131" y="1074" type="line"/>
      <point x="1131" y="1011" type="line"/>
      <point x="3590" y="1011" type="line"/>
      <point x="3590" y="1449" type="line"/>
      <point x="3739" y="1598" type="line"/>
      <point x="4681" y="1598" type="line"/>
      <point x="4681" y="1011" type="line"/>
      <point x="4945" y="1011" type="line"/>
      <point x="4945" y="478" type="line"/>
      <point x="4796" y="329" type="line"/>
      <point x="4681" y="329" type="line"/>
      <point x="4681" y="1" type="line"/>
      <point x="4532" y="-148" type="line"/>
      <point x="3590" y="-148" type="line"/>
      <point x="3590" y="329" type="line"/>
      <point x="42" y="329" type="line"/>
      <point x="42" y="1381" type="line"/>
      <point x="191" y="1530" type="line"/>
      <point x="1133" y="1530" type="line"/>
      <point x="1131" y="1074" type="line"/>
      <point x="1131" y="1074" type="line"/>
    </contour>
  </outline>
</glyph>
<glyph name="six" format="2">
  <advance width="5050"/>
  <unicode hex="0036"/>
  <outline>
    <contour>
      <point x="643" y="1602" type="line"/>
      <point x="157" y="1197" type="line"/>
      <point x="6" y="1047" type="line"/>
      <point x="6" y="-152" type="line"/>
      <point x="4881" y="-152" type="line"/>
      <point x="5032" y="-1" type="line"/>
      <point x="5032" y="1048" type="line"/>
      <point x="5031" y="1048" type="line"/>
      <point x="5031" y="1602" type="line"/>
    </contour>
    <contour>
      <point x="5027" y="1044" type="line"/>
      <point x="5028" y="1044" type="line"/>
      <point x="5028" y="1" type="line"/>
      <point x="4879" y="-148" type="line"/>
      <point x="10" y="-148" type="line"/>
      <point x="10" y="1045" type="line"/>
      <point x="159" y="1195" type="line"/>
      <point x="645" y="1598" type="line"/>
      <point x="5027" y="1598" type="line"/>
    </contour>
  </outline>
</glyph>
<glyph name="seven" format="2">
  <advance width="5017"/>
  <unicode hex="0037"/>
  <outline>
    <contour>
      <point x="986" y="563" type="line"/>
      <point x="1137" y="714" type="line"/>
      <point x="1137" y="912" type="line"/>
      <point x="3622" y="912" type="line"/>
      <point x="1896" y="2" type="line"/>
      <point x="1742" y="-152" type="line"/>
      <point x="2783" y="-152" type="line"/>
      <point x="4849" y="840" type="line"/>
      <point x="5000" y="991" type="line"/>
      <point x="5000" y="1602" type="line"/>
      <point x="189" y="1602" type="line"/>
      <point x="38" y="1451" type="line"/>
      <point x="38" y="563" type="line"/>
    </contour>
    <contour>
      <point x="3638" y="916" type="line"/>
      <point x="1133" y="916" type="line"/>
      <point x="1133" y="716" type="line"/>
      <point x="984" y="567" type="line"/>
      <point x="42" y="567" type="line"/>
      <point x="42" y="1449" type="line"/>
      <point x="191" y="1598" type="line"/>
      <point x="4996" y="1598" type="line"/>
      <point x="4996" y="993" type="line"/>
      <point x="4847" y="844" type="line"/>
      <point x="2783" y="-148" type="line"/>
      <point x="1752" y="-148" type="line"/>
      <point x="1898" y="-2" type="line"/>
    </contour>
  </outline>
</glyph>
<glyph name="nine" format="2">
  <advance width="5053"/>
  <unicode hex="0039"/>
  <outline>
    <contour>
      <point x="5036" y="1605" type="line"/>
      <point x="157" y="1605" type="line"/>
      <point x="6" y="1454" type="line"/>
      <point x="6" y="411" type="line"/>
      <point x="20" y="411" type="line"/>
      <point x="7" y="398" type="line"/>
      <point x="7" y="-149" type="line"/>
      <point x="4885" y="-149" type="line"/>
      <point x="5036" y="2" type="line"/>
    </contour>
    <contour>
      <point x="30" y="415" type="line"/>
      <point x="10" y="415" type="line"/>
      <point x="10" y="1452" type="line"/>
      <point x="159" y="1601" type="line"/>
      <point x="5032" y="1601" type="line"/>
      <point x="5032" y="4" type="line"/>
      <point x="4883" y="-145" type="line"/>
      <point x="11" y="-145" type="line"/>
      <point x="11" y="396" type="line"/>
    </contour>
  </outline>
</glyph>
<glyph name="A" format="2">
  <advance width="5127"/>
  <unicode hex="0041"/>
  <outline>
    <contour>
      <point x="954" y="-152" type="line"/>
      <point x="1105" y="-1" type="line"/>
      <point x="1105" y="120" type="line"/>
      <point x="3888" y="120" type="line"/>
      <point x="3888" y="-152" type="line"/>
      <point x="4838" y="-152" type="line"/>
      <point x="4989" y="-1" type="line"/>
      <point x="4989" y="1602" type="line"/>
      <point x="659" y="1602" type="line"/>
      <point x="509" y="1451" type="line"/>
      <point x="509" y="1451" type="line"/>
      <point x="509" y="1451" type="line"/>
      <point x="6" y="944" type="line"/>
      <point x="6" y="-152" type="line"/>
    </contour>
    <contour>
      <point x="3892" y="124" type="line"/>
      <point x="1101" y="124" type="line"/>
      <point x="1101" y="1" type="line"/>
      <point x="952" y="-148" type="line"/>
      <point x="10" y="-148" type="line"/>
      <point x="10" y="942" type="line"/>
      <point x="511" y="1449" type="line"/>
      <point x="661" y="1598" type="line"/>
      <point x="4985" y="1598" type="line"/>
      <point x="4985" y="1" type="line"/>
      <point x="4836" y="-148" type="line"/>
      <point x="3892" y="-148" type="line"/>
    </contour>
    <contour>
      <point x="3892" y="806" type="line"/>
      <point x="3892" y="916" type="line"/>
      <point x="1101" y="916" type="line"/>
      <point x="1101" y="806" type="line"/>
    </contour>
    <contour>
      <point x="1105" y="810" type="line"/>
      <point x="1105" y="912" type="line"/>
      <point x="3888" y="912" type="line"/>
      <point x="3888" y="810" type="line"/>
    </contour>
  </outline>
</glyph>
<glyph name="C" format="2">
  <advance width="5025"/>
  <unicode hex="0043"/>
  <outline>
    <contour>
      <point x="5010" y="1602" type="line"/>
      <point x="639" y="1602" type="line"/>
      <point x="489" y="1451" type="line"/>
      <point x="489" y="1451" type="line"/>
      <point x="489" y="1451" type="line"/>
      <point x="6" y="918" type="line"/>
      <point x="6" y="-152" type="line"/>
      <point x="4857" y="-152" type="line"/>
      <point x="5008" y="-1" type="line"/>
      <point x="5008" y="754" type="line"/>
      <point x="4059" y="754" type="line"/>
      <point x="3908" y="603" type="line"/>
      <point x="3908" y="538" type="line"/>
      <point x="1105" y="538" type="line"/>
      <point x="1105" y="868" type="line"/>
      <point x="1143" y="912" type="line"/>
      <point x="3909" y="912" type="line"/>
      <point x="3909" y="763" type="line"/>
      <point x="4859" y="763" type="line"/>
      <point x="5010" y="914" type="line"/>
    </contour>
    <contour>
      <point x="1101" y="870" type="line"/>
      <point x="1101" y="534" type="line"/>
      <point x="3912" y="534" type="line"/>
      <point x="3912" y="601" type="line"/>
      <point x="4061" y="750" type="line"/>
      <point x="5004" y="750" type="line"/>
      <point x="5004" y="1" type="line"/>
      <point x="4855" y="-148" type="line"/>
      <point x="10" y="-148" type="line"/>
      <point x="10" y="916" type="line"/>
      <point x="491" y="1449" type="line"/>
      <point x="641" y="1598" type="line"/>
      <point x="5006" y="1598" type="line"/>
      <point x="5006" y="916" type="line"/>
      <point x="4857" y="767" type="line"/>
      <point x="3913" y="767" type="line"/>
      <point x="3913" y="916" type="line"/>
      <point x="1141" y="916" type="line"/>
    </contour>
  </outline>
</glyph>
<glyph name="D" format="2">
  <advance width="5199"/>
  <unicode hex="0044"/>
  <outline>
    <contour>
      <point x="5213" y="1602" type="line"/>
      <point x="310" y="1602" type="line"/>
      <point x="159" y="1451" type="line"/>
      <point x="159" y="-152" type="line"/>
      <point x="4562" y="-152" type="line"/>
      <point x="5062" y="340" type="line"/>
      <point x="5062" y="340" type="line"/>
      <point x="5062" y="340" type="line"/>
      <point x="5213" y="490" type="line"/>
    </contour>
    <contour>
      <point x="163" y="-148" type="line"/>
      <point x="163" y="1449" type="line"/>
      <point x="312" y="1598" type="line"/>
      <point x="5209" y="1598" type="line"/>
      <point x="5209" y="492" type="line"/>
      <point x="5060" y="342" type="line"/>
      <point x="4560" y="-148" type="line"/>
    </contour>
    <contour>
      <point x="4117" y="608" type="line"/>
      <point x="4117" y="916" type="line"/>
      <point x="1254" y="916" type="line"/>
      <point x="1254" y="533" type="line"/>
      <point x="4011" y="533" type="line"/>
    </contour>
    <contour>
      <point x="1258" y="537" type="line"/>
      <point x="1258" y="912" type="line"/>
      <point x="4113" y="912" type="line"/>
      <point x="4113" y="610" type="line"/>
      <point x="4009" y="537" type="line"/>
    </contour>
  </outline>
</glyph>
<glyph name="E" format="2">
  <advance width="5026"/>
  <unicode hex="0045"/>
  <outline>
    <contour>
      <point x="5008" y="1602" type="line"/>
      <point x="310" y="1602" type="line"/>
      <point x="159" y="1451" type="line"/>
      <point x="159" y="-152" type="line"/>
      <point x="4858" y="-152" type="line"/>
      <point x="5009" y="-1" type="line"/>
      <point x="5009" y="672" type="line"/>
      <point x="4065" y="672" type="line"/>
      <point x="3914" y="521" type="line"/>
      <point x="3914" y="498" type="line"/>
      <point x="3391" y="498" type="line"/>
      <point x="3444" y="551" type="line"/>
      <point x="3444" y="952" type="line"/>
      <point x="3913" y="952" type="line"/>
      <point x="3913" y="747" type="line"/>
      <point x="4857" y="747" type="line"/>
      <point x="5008" y="898" type="line"/>
    </contour>
    <contour>
      <point x="3917" y="956" type="line"/>
      <point x="3440" y="956" type="line"/>
      <point x="3440" y="553" type="line"/>
      <point x="3381" y="494" type="line"/>
      <point x="3918" y="494" type="line"/>
      <point x="3918" y="519" type="line"/>
      <point x="4067" y="668" type="line"/>
      <point x="5005" y="668" type="line"/>
      <point x="5005" y="1" type="line"/>
      <point x="4856" y="-148" type="line"/>
      <point x="163" y="-148" type="line"/>
      <point x="163" y="1449" type="line"/>
      <point x="312" y="1598" type="line"/>
      <point x="5004" y="1598" type="line"/>
      <point x="5004" y="900" type="line"/>
      <point x="4855" y="751" type="line"/>
      <point x="3917" y="751" type="line"/>
    </contour>
  </outline>
</glyph>
<glyph name="F" format="2">
  <advance width="5021"/>
  <unicode hex="0046"/>
  <outline>
    <contour>
      <point x="1107" y="-152" type="line"/>
      <point x="1258" y="-1" type="line"/>
      <point x="1258" y="195" type="line"/>
      <point x="3140" y="195" type="line"/>
      <point x="3291" y="346" type="line"/>
      <point x="3291" y="885" type="line"/>
      <point x="1258" y="885" type="line"/>
      <point x="1258" y="912" type="line"/>
      <point x="3904" y="912" type="line"/>
      <point x="3904" y="645" type="line"/>
      <point x="4852" y="645" type="line"/>
      <point x="5003" y="796" type="line"/>
      <point x="5003" y="1602" type="line"/>
      <point x="310" y="1602" type="line"/>
      <point x="159" y="1451" type="line"/>
      <point x="159" y="-152" type="line"/>
    </contour>
    <contour>
      <point x="3908" y="916" type="line"/>
      <point x="1254" y="916" type="line"/>
      <point x="1254" y="881" type="line"/>
      <point x="3287" y="881" type="line"/>
      <point x="3287" y="348" type="line"/>
      <point x="3138" y="199" type="line"/>
      <point x="1254" y="199" type="line"/>
      <point x="1254" y="1" type="line"/>
      <point x="1105" y="-148" type="line"/>
      <point x="163" y="-148" type="line"/>
      <point x="163" y="1449" type="line"/>
      <point x="312" y="1598" type="line"/>
      <point x="4999" y="1598" type="line"/>
      <point x="4999" y="798" type="line"/>
      <point x="4850" y="649" type="line"/>
      <point x="3908" y="649" type="line"/>
    </contour>
  </outline>
</glyph>
<glyph name="J" format="2">
  <advance width="4523"/>
  <unicode hex="004A"/>
  <outline>
    <contour>
      <point x="1066" y="1070" type="line"/>
      <point x="188" y="1070" type="line"/>
      <point x="37" y="919" type="line"/>
      <point x="38" y="-152" type="line"/>
      <point x="4233" y="-152" type="line"/>
      <point x="4384" y="-1" type="line"/>
      <point x="4384" y="1602" type="line"/>
      <point x="3435" y="1602" type="line"/>
      <point x="3284" y="1451" type="line"/>
      <point x="3284" y="538" type="line"/>
      <point x="1066" y="538" type="line"/>
    </contour>
    <contour>
      <point x="1062" y="534" type="line"/>
      <point x="3288" y="534" type="line"/>
      <point x="3288" y="1449" type="line"/>
      <point x="3437" y="1598" type="line"/>
      <point x="4380" y="1598" type="line"/>
      <point x="4380" y="1" type="line"/>
      <point x="4231" y="-148" type="line"/>
      <point x="42" y="-148" type="line"/>
      <point x="41" y="917" type="line"/>
      <point x="190" y="1066" type="line"/>
      <point x="1062" y="1066" type="line"/>
    </contour>
  </outline>
</glyph>
<glyph name="K" format="2">
  <advance width="4863"/>
  <unicode hex="004B"/>
  <outline>
    <contour>
      <point x="4870" y="983" type="line"/>
      <point x="4349" y="983" type="line"/>
      <point x="4681" y="1602" type="line"/>
      <point x="3714" y="1602" type="line"/>
      <point x="3563" y="1451" type="line"/>
      <point x="3318" y="980" type="line"/>
      <point x="1258" y="980" type="line"/>
      <point x="1258" y="1602" type="line"/>
      <point x="310" y="1602" type="line"/>
      <point x="159" y="1451" type="line"/>
      <point x="159" y="-152" type="line"/>
      <point x="1107" y="-152" type="line"/>
      <point x="1258" y="-1" type="line"/>
      <point x="1258" y="290" type="line"/>
      <point x="3771" y="290" type="line"/>
      <point x="3771" y="-152" type="line"/>
      <point x="4719" y="-152" type="line"/>
      <point x="4870" y="-1" type="line"/>
    </contour>
    <contour>
      <point x="4343" y="979" type="line"/>
      <point x="4866" y="979" type="line"/>
      <point x="4866" y="1" type="line"/>
      <point x="4717" y="-148" type="line"/>
      <point x="3775" y="-148" type="line"/>
      <point x="3775" y="294" type="line"/>
      <point x="1254" y="294" type="line"/>
      <point x="1254" y="1" type="line"/>
      <point x="1105" y="-148" type="line"/>
      <point x="163" y="-148" type="line"/>
      <point x="163" y="1449" type="line"/>
      <point x="312" y="1598" type="line"/>
      <point x="1254" y="1598" type="line"/>
      <point x="1254" y="976" type="line"/>
      <point x="3320" y="976" type="line"/>
      <point x="3567" y="1449" type="line"/>
      <point x="3716" y="1598" type="line"/>
      <point x="4675" y="1598" type="line"/>
    </contour>
  </outline>
</glyph>
<glyph name="M" format="2">
  <advance width="6521"/>
  <unicode hex="004D"/>
  <outline>
    <contour>
      <point x="1103" y="-152" type="line"/>
      <point x="1257" y="2" type="line"/>
      <point x="1104" y="2" type="line"/>
      <point x="1104" y="912" type="line"/>
      <point x="1438" y="912" type="line"/>
      <point x="2558" y="-151" type="line"/>
      <point x="3834" y="-151" type="line"/>
      <point x="4953" y="912" type="line"/>
      <point x="5287" y="912" type="line"/>
      <point x="5287" y="-152" type="line"/>
      <point x="6232" y="-152" type="line"/>
      <point x="6386" y="2" type="line"/>
      <point x="6233" y="2" type="line"/>
      <point x="6233" y="1452" type="line"/>
      <point x="4357" y="1452" type="line"/>
      <point x="3344" y="487" type="line"/>
      <point x="3046" y="487" type="line"/>
      <point x="2032" y="1452" type="line"/>
      <point x="313" y="1452" type="line"/>
      <point x="313" y="1605" type="line"/>
      <point x="159" y="1451" type="line"/>
      <point x="159" y="-152" type="line"/>
    </contour>
    <contour>
      <point x="309" y="1448" type="line"/>
      <point x="2030" y="1448" type="line"/>
      <point x="3044" y="483" type="line"/>
      <point x="3346" y="483" type="line"/>
      <point x="4359" y="1448" type="line"/>
      <point x="6229" y="1448" type="line"/>
      <point x="6229" y="-2" type="line"/>
      <point x="6376" y="-2" type="line"/>
      <point x="6230" y="-148" type="line"/>
      <point x="5291" y="-148" type="line"/>
      <point x="5291" y="916" type="line"/>
      <point x="4951" y="916" type="line"/>
      <point x="3832" y="-147" type="line"/>
      <point x="2560" y="-147" type="line"/>
      <point x="1440" y="916" type="line"/>
      <point x="1100" y="916" type="line"/>
      <point x="1100" y="-2" type="line"/>
      <point x="1247" y="-2" type="line"/>
      <point x="1101" y="-148" type="line"/>
      <point x="163" y="-148" type="line"/>
      <point x="163" y="1449" type="line"/>
      <point x="309" y="1595" type="line"/>
    </contour>
  </outline>
</glyph>
<glyph name="O" format="2">
  <advance width="5193"/>
  <unicode hex="004F"/>
  <outline>
    <contour>
      <point x="489" y="1451" type="line"/>
      <point x="489" y="1451" type="line"/>
      <point x="489" y="1451" type="line"/>
      <point x="6" y="918" type="line"/>
      <point x="6" y="-152" type="line"/>
      <point x="4573" y="-152" type="line"/>
      <point x="4723" y="-1" type="line"/>
      <point x="4723" y="-1" type="line"/>
      <point x="4723" y="-1" type="line"/>
      <point x="5207" y="534" type="line"/>
      <point x="5207" y="1602" type="line"/>
      <point x="639" y="1602" type="line"/>
    </contour>
    <contour>
      <point x="10" y="-148" type="line"/>
      <point x="10" y="916" type="line"/>
      <point x="491" y="1449" type="line"/>
      <point x="641" y="1598" type="line"/>
      <point x="5203" y="1598" type="line"/>
      <point x="5203" y="536" type="line"/>
      <point x="4721" y="1" type="line"/>
      <point x="4571" y="-148" type="line"/>
    </contour>
    <contour>
      <point x="4074" y="534" type="line"/>
      <point x="4111" y="572" type="line"/>
      <point x="4111" y="916" type="line"/>
      <point x="1137" y="916" type="line"/>
      <point x="1101" y="877" type="line"/>
      <point x="1101" y="534" type="line"/>
    </contour>
    <contour>
      <point x="1105" y="538" type="line"/>
      <point x="1105" y="875" type="line"/>
      <point x="1139" y="912" type="line"/>
      <point x="4107" y="912" type="line"/>
      <point x="4107" y="574" type="line"/>
      <point x="4072" y="538" type="line"/>
    </contour>
  </outline>
</glyph>
<glyph name="P" format="2">
  <advance width="5055"/>
  <unicode hex="0050"/>
  <outline>
    <contour>
      <point x="1107" y="-152" type="line"/>
      <point x="1258" y="-1" type="line"/>
      <point x="1258" y="101" type="line"/>
      <point x="4886" y="101" type="line"/>
      <point x="5037" y="252" type="line"/>
      <point x="5037" y="1602" type="line"/>
      <point x="310" y="1602" type="line"/>
      <point x="159" y="1451" type="line"/>
      <point x="159" y="-152" type="line"/>
    </contour>
    <contour>
      <point x="1254" y="105" type="line"/>
      <point x="1254" y="1" type="line"/>
      <point x="1105" y="-148" type="line"/>
      <point x="163" y="-148" type="line"/>
      <point x="163" y="1449" type="line"/>
      <point x="312" y="1598" type="line"/>
      <point x="5033" y="1598" type="line"/>
      <point x="5033" y="254" type="line"/>
      <point x="4884" y="105" type="line"/>
    </contour>
    <contour>
      <point x="3942" y="787" type="line"/>
      <point x="3942" y="916" type="line"/>
      <point x="1254" y="916" type="line"/>
      <point x="1254" y="787" type="line"/>
    </contour>
    <contour>
      <point x="1258" y="791" type="line"/>
      <point x="1258" y="912" type="line"/>
      <point x="3938" y="912" type="line"/>
      <point x="3938" y="791" type="line"/>
    </contour>
  </outline>
</glyph>
<glyph name="S" format="2">
  <advance width="4792"/>
  <unicode hex="0053"/>
  <outline>
    <contour>
      <point x="521" y="1451" type="line"/>
      <point x="521" y="1451" type="line"/>
      <point x="521" y="1451" type="line"/>
      <point x="40" y="917" type="line"/>
      <point x="40" y="413" type="line"/>
      <point x="87" y="413" type="line"/>
      <point x="38" y="364" type="line"/>
      <point x="38" y="-152" type="line"/>
      <point x="4137" y="-152" type="line"/>
      <point x="4287" y="-1" type="line"/>
      <point x="4287" y="-1" type="line"/>
      <point x="4287" y="-1" type="line"/>
      <point x="4773" y="528" type="line"/>
      <point x="4774" y="528" type="line"/>
      <point x="4775" y="1046" type="line"/>
      <point x="4772" y="1046" type="line"/>
      <point x="4784" y="1058" type="line"/>
      <point x="4783" y="1602" type="line"/>
      <point x="671" y="1602" type="line"/>
    </contour>
    <contour>
      <point x="97" y="417" type="line"/>
      <point x="44" y="417" type="line"/>
      <point x="44" y="915" type="line"/>
      <point x="523" y="1449" type="line"/>
      <point x="673" y="1598" type="line"/>
      <point x="4779" y="1598" type="line"/>
      <point x="4780" y="1060" type="line"/>
      <point x="4762" y="1042" type="line"/>
      <point x="4771" y="1042" type="line"/>
      <point x="4770" y="530" type="line"/>
      <point x="4285" y="1" type="line"/>
      <point x="4135" y="-148" type="line"/>
      <point x="42" y="-148" type="line"/>
      <point x="42" y="362" type="line"/>
    </contour>
  </outline>
</glyph>
<glyph name="U" format="2">
  <advance width="4772"/>
  <unicode hex="0055"/>
  <outline>
    <contour>
      <point x="4633" y="-1" type="line"/>
      <point x="4633" y="1602" type="line"/>
      <point x="3684" y="1602" type="line"/>
      <point x="3533" y="1451" type="line"/>
      <point x="3533" y="538" type="line"/>
      <point x="1105" y="538" type="line"/>
      <point x="1105" y="1602" type="line"/>
      <point x="157" y="1602" type="line"/>
      <point x="6" y="1451" type="line"/>
      <point x="6" y="-152" type="line"/>
      <point x="4482" y="-152" type="line"/>
    </contour>
    <contour>
      <point x="1101" y="534" type="line"/>
      <point x="3537" y="534" type="line"/>
      <point x="3537" y="1449" type="line"/>
      <point x="3686" y="1598" type="line"/>
      <point x="4629" y="1598" type="line"/>
      <point x="4629" y="1" type="line"/>
      <point x="4480" y="-148" type="line"/>
      <point x="10" y="-148" type="line"/>
      <point x="10" y="1449" type="line"/>
      <point x="159" y="1598" type="line"/>
      <point x="1101" y="1598" type="line"/>
    </contour>
  </outline>
</glyph>
<glyph name="Y" format="2">
  <advance width="5106"/>
  <unicode hex="0059"/>
  <outline>
    <contour>
      <point x="1258" y="1602" type="line"/>
      <point x="310" y="1602" type="line"/>
      <point x="159" y="1451" type="line"/>
      <point x="159" y="497" type="line"/>
      <point x="266" y="497" type="line"/>
      <point x="160" y="391" type="line"/>
      <point x="160" y="-152" type="line"/>
      <point x="4817" y="-152" type="line"/>
      <point x="4968" y="-1" type="line"/>
      <point x="4968" y="1602" type="line"/>
      <point x="4019" y="1602" type="line"/>
      <point x="3868" y="1451" type="line"/>
      <point x="3868" y="1147" type="line"/>
      <point x="1258" y="1147" type="line"/>
    </contour>
    <contour>
      <point x="276" y="501" type="line"/>
      <point x="163" y="501" type="line"/>
      <point x="163" y="1449" type="line"/>
      <point x="312" y="1598" type="line"/>
      <point x="1254" y="1598" type="line"/>
      <point x="1254" y="1143" type="line"/>
      <point x="3872" y="1143" type="line"/>
      <point x="3872" y="1449" type="line"/>
      <point x="4021" y="1598" type="line"/>
      <point x="4964" y="1598" type="line"/>
      <point x="4964" y="1" type="line"/>
      <point x="4815" y="-148" type="line"/>
      <point x="164" y="-148" type="line"/>
      <point x="164" y="389" type="line"/>
    </contour>
    <contour>
      <point x="3872" y="494" type="line"/>
      <point x="3872" y="501" type="line"/>
      <point x="1256" y="501" type="line"/>
      <point x="1256" y="494" type="line"/>
    </contour>
  </outline>
</glyph>
<glyph name="Z" format="2">
  <advance width="4819"/>
  <unicode hex="005A"/>
  <outline>
    <contour>
      <point x="4779" y="1602" type="line"/>
      <point x="211" y="1602" type="line"/>
      <point x="60" y="1451" type="line"/>
      <point x="60" y="850" type="line"/>
      <point x="150" y="850" type="line"/>
      <point x="38" y="738" type="line"/>
      <point x="38" y="-152" type="line"/>
      <point x="4650" y="-152" type="line"/>
      <point x="4801" y="-1" type="line"/>
      <point x="4801" y="680" type="line"/>
      <point x="4117" y="680" type="line"/>
      <point x="4628" y="735" type="line"/>
      <point x="4779" y="886" type="line"/>
    </contour>
    <contour>
      <point x="160" y="854" type="line"/>
      <point x="64" y="854" type="line"/>
      <point x="64" y="1449" type="line"/>
      <point x="213" y="1598" type="line"/>
      <point x="4775" y="1598" type="line"/>
      <point x="4775" y="888" type="line"/>
      <point x="4626" y="739" type="line"/>
      <point x="4070" y="679" type="line"/>
      <point x="4070" y="676" type="line"/>
      <point x="4797" y="676" type="line"/>
      <point x="4797" y="1" type="line"/>
      <point x="4648" y="-148" type="line"/>
      <point x="42" y="-148" type="line"/>
      <point x="42" y="736" type="line"/>
    </contour>
    <contour>
      <point x="3829" y="653" type="line"/>
      <point x="2384" y="497" type="line"/>
      <point x="2384" y="494" type="line"/>
      <point x="3704" y="494" type="line"/>
      <point x="3704" y="527" type="line"/>
    </contour>
    <contour>
      <point x="3700" y="529" type="line"/>
      <point x="3700" y="498" type="line"/>
      <point x="2431" y="498" type="line"/>
      <point x="3819" y="647" type="line"/>
    </contour>
  </outline>
</glyph>
<glyph name="E.wide" format="2">
  <advance width="4843"/>
  <outline>
    <contour>
      <point x="4803" y="1602" type="line"/>
      <point x="310" y="1602" type="line"/>
      <point x="159" y="1451" type="line"/>
      <point x="159" y="-152" type="line"/>
      <point x="4674" y="-152" type="line"/>
      <point x="4825" y="-1" type="line"/>
      <point x="4825" y="506" type="line"/>
      <point x="4225" y="506" type="line"/>
      <point x="4280" y="561" type="line"/>
      <point x="4280" y="944" type="line"/>
      <point x="4652" y="944" type="line"/>
      <point x="4803" y="1095" type="line"/>
    </contour>
    <contour>
      <point x="4276" y="948" type="line"/>
      <point x="4276" y="563" type="line"/>
      <point x="4215" y="502" type="line"/>
      <point x="4821" y="502" type="line"/>
      <point x="4821" y="1" type="line"/>
      <point x="4672" y="-148" type="line"/>
      <point x="163" y="-148" type="line"/>
      <point x="163" y="1449" type="line"/>
      <point x="312" y="1598" type="line"/>
      <point x="4799" y="1598" type="line"/>
      <point x="4799" y="1097" type="line"/>
      <point x="4650" y="948" type="line"/>
    </contour>
  </outline>
</glyph>
<glyph name="G.wide" format="2">
  <advance width="4892"/>
  <outline>
    <contour>
      <point x="489" y="1451" type="line"/>
      <point x="489" y="1451" type="line"/>
      <point x="489" y="1451" type="line"/>
      <point x="7" y="917" type="line"/>
      <point x="7" y="916" type="line"/>
      <point x="6" y="916" type="line"/>
      <point x="6" y="-152" type="line"/>
      <point x="4755" y="-152" type="line"/>
      <point x="4906" y="-1" type="line"/>
      <point x="4906" y="1035" type="line"/>
      <point x="4833" y="1035" type="line"/>
      <point x="4892" y="1094" type="line"/>
      <point x="4892" y="1602" type="line"/>
      <point x="639" y="1602" type="line"/>
    </contour>
    <contour>
      <point x="4823" y="1031" type="line"/>
      <point x="4902" y="1031" type="line"/>
      <point x="4902" y="1" type="line"/>
      <point x="4753" y="-148" type="line"/>
      <point x="10" y="-148" type="line"/>
      <point x="10" y="914" type="line"/>
      <point x="491" y="1449" type="line"/>
      <point x="641" y="1598" type="line"/>
      <point x="4888" y="1598" type="line"/>
      <point x="4888" y="1096" type="line"/>
    </contour>
    <contour>
      <point x="1101" y="874" type="line"/>
      <point x="1101" y="503" type="line"/>
      <point x="2824" y="503" type="line"/>
      <point x="2824" y="882" type="line"/>
      <point x="2889" y="947" type="line"/>
      <point x="1158" y="947" type="line"/>
    </contour>
    <contour>
      <point x="2820" y="884" type="line"/>
      <point x="2820" y="507" type="line"/>
      <point x="1105" y="507" type="line"/>
      <point x="1105" y="872" type="line"/>
      <point x="1160" y="943" type="line"/>
      <point x="2879" y="943" type="line"/>
    </contour>
  </outline>
</glyph>
<glyph name="I.narrow" format="2">
  <advance width="1397"/>
  <outline>
    <contour>
      <point x="159" y="1453" type="line"/>
      <point x="159" y="-152" type="line"/>
      <point x="1108" y="-152" type="line"/>
      <point x="1259" y="-1" type="line"/>
      <point x="1259" y="1604" type="line"/>
      <point x="310" y="1604" type="line"/>
    </contour>
    <contour>
      <point x="163" y="-148" type="line"/>
      <point x="163" y="1451" type="line"/>
      <point x="312" y="1600" type="line"/>
      <point x="1255" y="1600" type="line"/>
      <point x="1255" y="1" type="line"/>
      <point x="1106" y="-148" type="line"/>
    </contour>
  </outline>
</glyph>
<glyph name="L.wide" format="2">
  <advance width="4149"/>
  <outline>
    <contour>
      <point x="4132" y="-1" type="line"/>
      <point x="4132" y="538" type="line"/>
      <point x="1001" y="538" type="line"/>
      <point x="1001" y="1602" type="line"/>
      <point x="53" y="1602" type="line"/>
      <point x="-98" y="1451" type="line"/>
      <point x="-98" y="-152" type="line"/>
      <point x="3981" y="-152" type="line"/>
    </contour>
    <contour>
      <point x="997" y="534" type="line"/>
      <point x="4128" y="534" type="line"/>
      <point x="4128" y="1" type="line"/>
      <point x="3979" y="-148" type="line"/>
      <point x="-94" y="-148" type="line"/>
      <point x="-94" y="1449" type="line"/>
      <point x="55" y="1598" type="line"/>
      <point x="997" y="1598" type="line"/>
    </contour>
  </outline>
</glyph>
<glyph name="N.wide" format="2">
  <advance width="4601"/>
  <outline>
    <contour>
      <point x="1130" y="-152" type="line"/>
      <point x="1281" y="-1" type="line"/>
      <point x="1281" y="891" type="line"/>
      <point x="3166" y="-152" type="line"/>
      <point x="4507" y="-152" type="line"/>
      <point x="4658" y="-1" type="line"/>
      <point x="4658" y="1602" type="line"/>
      <point x="3710" y="1602" type="line"/>
      <point x="3559" y="1451" type="line"/>
      <point x="3559" y="562" type="line"/>
      <point x="1677" y="1602" type="line"/>
      <point x="334" y="1602" type="line"/>
      <point x="183" y="1451" type="line"/>
      <point x="183" y="-152" type="line"/>
    </contour>
    <contour>
      <point x="1277" y="897" type="line"/>
      <point x="1277" y="1" type="line"/>
      <point x="1128" y="-148" type="line"/>
      <point x="187" y="-148" type="line"/>
      <point x="187" y="1449" type="line"/>
      <point x="336" y="1598" type="line"/>
      <point x="1675" y="1598" type="line"/>
      <point x="3563" y="556" type="line"/>
      <point x="3563" y="1449" type="line"/>
      <point x="3712" y="1598" type="line"/>
      <point x="4654" y="1598" type="line"/>
      <point x="4654" y="1" type="line"/>
      <point x="4505" y="-148" type="line"/>
      <point x="3168" y="-148" type="line"/>
    </contour>
  </outline>
</glyph>
<glyph name="P.wide" format="2">
  <advance width="5018"/>
  <outline>
    <contour>
      <point x="1065" y="-152" type="line"/>
      <point x="1216" y="-1" type="line"/>
      <point x="1216" y="195" type="line"/>
      <point x="4839" y="195" type="line"/>
      <point x="4990" y="346" type="line"/>
      <point x="4990" y="1602" type="line"/>
      <point x="267" y="1602" type="line"/>
      <point x="116" y="1451" type="line"/>
      <point x="116" y="-152" type="line"/>
    </contour>
    <contour>
      <point x="1212" y="199" type="line"/>
      <point x="1212" y="1" type="line"/>
      <point x="1063" y="-148" type="line"/>
      <point x="120" y="-148" type="line"/>
      <point x="120" y="1449" type="line"/>
      <point x="269" y="1598" type="line"/>
      <point x="4986" y="1598" type="line"/>
      <point x="4986" y="348" type="line"/>
      <point x="4837" y="199" type="line"/>
    </contour>
    <contour>
      <point x="3895" y="889" type="line"/>
      <point x="3895" y="916" type="line"/>
      <point x="1212" y="916" type="line"/>
      <point x="1212" y="889" type="line"/>
    </contour>
    <contour>
      <point x="1216" y="893" type="line"/>
      <point x="1216" y="912" type="line"/>
      <point x="3891" y="912" type="line"/>
      <point x="3891" y="893" type="line"/>
    </contour>
  </outline>
</glyph>
<glyph name="R.wide" format="2">
  <advance width="5044"/>
  <outline>
    <contour>
      <point x="1107" y="-154" type="line"/>
      <point x="1258" y="-3" type="line"/>
      <point x="1258" y="110" type="line"/>
      <point x="3360" y="110" type="line"/>
      <point x="3771" y="-152" type="line"/>
      <point x="4719" y="-152" type="line"/>
      <point x="4871" y="0" type="line"/>
      <point x="4677" y="110" type="line"/>
      <point x="4883" y="110" type="line"/>
      <point x="5034" y="261" type="line"/>
      <point x="5034" y="1600" type="line"/>
      <point x="310" y="1600" type="line"/>
      <point x="159" y="1449" type="line"/>
      <point x="159" y="-154" type="line"/>
    </contour>
    <contour>
      <point x="4661" y="114" type="line"/>
      <point x="4865" y="0" type="line"/>
      <point x="4717" y="-148" type="line"/>
      <point x="3773" y="-148" type="line"/>
      <point x="3362" y="114" type="line"/>
      <point x="1254" y="114" type="line"/>
      <point x="1254" y="-1" type="line"/>
      <point x="1105" y="-150" type="line"/>
      <point x="163" y="-150" type="line"/>
      <point x="163" y="1447" type="line"/>
      <point x="312" y="1596" type="line"/>
      <point x="5030" y="1596" type="line"/>
      <point x="5030" y="263" type="line"/>
      <point x="4881" y="114" type="line"/>
    </contour>
    <contour>
      <point x="3938" y="796" type="line"/>
      <point x="3938" y="914" type="line"/>
      <point x="1254" y="914" type="line"/>
      <point x="1254" y="796" type="line"/>
    </contour>
    <contour>
      <point x="1258" y="800" type="line"/>
      <point x="1258" y="910" type="line"/>
      <point x="3934" y="910" type="line"/>
      <point x="3934" y="800" type="line"/>
    </contour>
  </outline>
</glyph>
<glyph name="five.wide" format="2">
  <advance width="5142"/>
  <outline>
    <contour>
      <point x="5127" y="1602" type="line"/>
      <point x="189" y="1602" type="line"/>
      <point x="38" y="1451" type="line"/>
      <point x="38" y="409" type="line"/>
      <point x="92" y="409" type="line"/>
      <point x="39" y="356" type="line"/>
      <point x="39" y="-152" type="line"/>
      <point x="4975" y="-152" type="line"/>
      <point x="5126" y="-1" type="line"/>
      <point x="5126" y="1041" type="line"/>
      <point x="5074" y="1041" type="line"/>
      <point x="5127" y="1094" type="line"/>
    </contour>
    <contour>
      <point x="102" y="413" type="line"/>
      <point x="42" y="413" type="line"/>
      <point x="42" y="1449" type="line"/>
      <point x="191" y="1598" type="line"/>
      <point x="5123" y="1598" type="line"/>
      <point x="5123" y="1096" type="line"/>
      <point x="5064" y="1037" type="line"/>
      <point x="5122" y="1037" type="line"/>
      <point x="5122" y="1" type="line"/>
      <point x="4973" y="-148" type="line"/>
      <point x="43" y="-148" type="line"/>
      <point x="43" y="354" type="line"/>
    </contour>
  </outline>
</glyph>
<glyph name="nine.wide" format="2">
  <advance width="4806"/>
  <outline>
    <contour>
      <point x="4999" y="1602" type="line"/>
      <point x="26" y="1602" type="line"/>
      <point x="-125" y="1451" type="line"/>
      <point x="-125" y="409" type="line"/>
      <point x="-71" y="409" type="line"/>
      <point x="-124" y="356" type="line"/>
      <point x="-124" y="-152" type="line"/>
      <point x="4848" y="-152" type="line"/>
      <point x="4999" y="-1" type="line"/>
    </contour>
    <contour>
      <point x="-61" y="413" type="line"/>
      <point x="-121" y="413" type="line"/>
      <point x="-121" y="1449" type="line"/>
      <point x="28" y="1598" type="line"/>
      <point x="4995" y="1598" type="line"/>
      <point x="4995" y="1" type="line"/>
      <point x="4846" y="-148" type="line"/>
      <point x="-120" y="-148" type="line"/>
      <point x="-120" y="354" type="line"/>
    </contour>
  </outline>
</glyph>
<glyph name="seven.alt" format="2">
  <advance width="4421"/>
  <outline>
    <contour>
      <point x="974" y="504" type="line"/>
      <point x="1128" y="658" type="line"/>
      <point x="975" y="658" type="line"/>
      <point x="974" y="912" type="line"/>
      <point x="3411" y="912" type="line"/>
      <point x="3411" y="-152" type="line"/>
      <point x="4360" y="-152" type="line"/>
      <point x="4514" y="2" type="line"/>
      <point x="4361" y="2" type="line"/>
      <point x="4361" y="1452" type="line"/>
      <point x="249" y="1452" type="line"/>
      <point x="249" y="1605" type="line"/>
      <point x="95" y="1451" type="line"/>
      <point x="95" y="504" type="line"/>
    </contour>
    <contour>
      <point x="3415" y="916" type="line"/>
      <point x="970" y="916" type="line"/>
      <point x="971" y="654" type="line"/>
      <point x="1118" y="654" type="line"/>
      <point x="972" y="508" type="line"/>
      <point x="99" y="508" type="line"/>
      <point x="99" y="1449" type="line"/>
      <point x="245" y="1595" type="line"/>
      <point x="245" y="1448" type="line"/>
      <point x="4357" y="1448" type="line"/>
      <point x="4357" y="-2" type="line"/>
      <point x="4504" y="-2" type="line"/>
      <point x="4358" y="-148" type="line"/>
      <point x="3415" y="-148" type="line"/>
    </contour>
  </outline>
</glyph>
